<?xml version="1.0" standalone="no"?>
<!DOCTYPE svg PUBLIC "-//W3C//DTD SVG 20010904//EN"
 "http://www.w3.org/TR/2001/REC-SVG-20010904/DTD/svg10.dtd">
<svg version="1.0" xmlns="http://www.w3.org/2000/svg"
 width="825.000000pt" height="875.000000pt" viewBox="0 0 825.000000 875.000000"
 preserveAspectRatio="xMidYMid meet">

<g transform="translate(0.000000,875.000000) scale(0.100000,-0.100000)"
fill="#000000" stroke="none">
<path d="M3942 5647 l-182 -182 0 -1095 0 -1094 -60 59 -60 59 0 876 0 875
-180 -180 -180 -180 0 -545 0 -544 -50 49 -50 49 0 305 0 306 -130 -130 -130
-130 0 -112 0 -113 40 0 40 0 0 98 0 98 50 49 50 49 0 -225 0 -224 130 -130
130 -130 0 625 0 625 100 100 100 100 0 -795 0 -795 140 -140 140 -140 0 1175
0 1175 125 125 125 125 0 -1383 0 -1382 35 0 35 0 0 1382 0 1383 125 -125 125
-125 0 -1175 0 -1175 140 140 140 140 0 795 0 795 100 -100 100 -100 0 -625 0
-625 130 130 130 130 0 224 0 225 50 -49 50 -49 0 -98 0 -98 40 0 40 0 0 113
0 112 -130 130 -130 130 0 -306 0 -305 -50 -49 -50 -49 0 544 0 545 -180 180
-180 180 0 -875 0 -876 -60 -59 -60 -59 0 1094 0 1095 -183 183 -182 182 -183
-183z"/>
</g>
</svg>
